<svg xmlns="http://www.w3.org/2000/svg" xmlns:xlink="http://www.w3.org/1999/xlink" viewBox="0 0 191.245 85" fill="#fff" fill-rule="evenodd" stroke="#000" stroke-linecap="round" stroke-linejoin="round"><use xlink:href="#C" x="5.625" y="2.5"/><defs><linearGradient id="A" x1="50%" y1="100%" x2="50%" y2="0%"><stop offset="0%" stop-color="#294e82"/><stop offset="100%" stop-color="#2a4f84"/></linearGradient><linearGradient id="B" x1="50%" y1="100%" x2="50%" y2="0%"><stop offset="0%" stop-color="#172f50"/><stop offset="100%" stop-color="#294e82"/></linearGradient></defs><symbol id="C" overflow="visible"><g stroke="none"><path d="M170 35H11V15.43C11 6.944 17.877 0 26.281 0h128.438C163.124 0 170 6.944 170 15.43z" fill="url(#A)"/><path d="M170 35H11v29.57C11 73.056 17.877 80 26.281 80h128.438C163.124 80 170 73.056 170 64.57z" fill="url(#B)"/><path d="M143.672 38.976c6.762 2.37 10.141 6.431 10.141 12.176 0 3.782-1.401 6.784-4.198 9.004s-6.78 3.6-11.968 3.6-9.987-1.506-14.407-3.978c.048-1.311.394-2.75 1.029-4.311s1.386-2.802 2.248-3.708c4.062 2.115 7.597 3.174 10.598 3.174 1.418 0 2.515-.238 3.279-.719s1.145-1.121 1.145-1.927c0-1.517-1.172-2.651-3.51-3.407l-4.198-1.589c-6.351-2.319-9.527-6.098-9.527-11.347 0-3.833 1.334-6.871 4.002-9.118s6.264-4.176 10.786-4.176c2.237 0 4.7.315 7.395.945s4.904 2.187 6.632 3.042c.102 1.413-.181 2.964-.838 4.653s-1.473 2.888-2.442 3.594c-4.272-1.917-7.826-2.876-10.674-2.876-1.02 0-1.788.227-2.327.683-.533.455-.795 1.033-.795 1.74 0 1.211.964 2.168 2.897 2.874l4.732 1.67zm-33.74 0c6.762 2.37 10.14 6.431 10.14 12.176 0 3.782-1.402 6.784-4.194 9.004s-6.784 3.6-11.971 3.6-9.988-1.506-14.407-3.978c.048-1.311.394-2.75 1.03-4.311s1.383-2.802 2.248-3.708c4.067 2.115 7.6 3.174 10.599 3.174 1.419 0 2.517-.238 3.278-.719s1.145-1.121 1.145-1.927c0-1.517-1.172-2.651-3.51-3.407l-4.195-1.589c-6.353-2.319-9.53-6.098-9.53-11.347 0-3.833 1.334-6.871 4.005-9.118s6.262-4.176 10.783-4.176c2.236 0 4.704.315 7.394.945s4.904 2.187 6.633 3.042c.102 1.413-.181 2.964-.838 4.653s-1.473 2.888-2.441 3.594c-4.273-1.917-7.828-2.876-10.677-2.876-1.018 0-1.789.227-2.325.683a2.17 2.17 0 0 0-.797 1.74c0 1.211.966 2.168 2.899 2.874l4.731 1.67zm-24.66.524c0-2.319-.368-4.463-1.105-6.431S82.376 29.413 81.004 28s-3.036-2.522-4.992-3.329-4.157-2.021-6.596-2.021c-2.897 0-5.426 1.314-7.585 2.324s-3.938 2.394-5.335 4.16-2.442 3.846-3.128 6.242-1.029 5.006-1.029 7.829c0 2.922.279 5.625.839 8.096s1.512 4.61 2.858 6.428 3.101 3.227 5.261 4.233 4.842 1.782 8.043 1.782c5.895 0 10.875-1.71 14.941-4.583-.403-2.922-1.442-5.246-3.111-6.961-2.077.781-3.914 1.341-5.507 1.685s-3.001.51-4.215.51c-2.43 0-4.179-.62-5.24-1.871s-1.642-2.721-1.745-4.961h19.821c.655-2.121.986-4.988.986-8.065zm-20.882.524c.151-2.574.62-5.328 1.4-6.462s1.978-1.703 3.593-1.703c1.664 0 2.912.603 3.743 1.814s1.249 3.65 1.249 5.516l.001.835h-9.987 0z" fill="#f6f6f6"/></g><path d="M174.722 45.05c-2.155 1.887-3.405 4.602-3.405 8.152v13.221c0 4.395-1.348 7.738-4.391 10.036S160.339 79.89 156.292 80l-2.399-.018v-6.588c2.114-.618 2.983-1.337 3.824-2.154 1.524-1.381 2.692-3.628 2.692-6.749V53.817c.057-3.628.335-6.471 1.653-8.524s3.896-3.849 7.721-5.399c-4.225-1.939-7.063-4.472-8.509-7.595-.85-1.855-.867-4.359-.867-7.508v-9.788c0-3.233-1.056-5.498-2.354-6.791-.844-.844-1.827-1.518-4.164-2.026V0h5.967c2.563-.021 4.71 1.384 6.579 2.848 2.035 1.605 3.481 3.774 4.329 6.504.482 1.578.551 3.085.551 4.52v11.321c0 3.999 1.178 6.971 3.192 8.912 1.135 1.126 2.737 2.155 5.488 3.085v5.114c-2.437.676-3.968 1.591-5.273 2.747z" fill="#f6f6f6" stroke="#404040" stroke-width="2"/><path d="M48.453 53.65h-2.059c-2.238 0-3.081-1.179-3.081-3.548V6.57c0-2.618-.755-4.455-1.721-5.514S38.95.011 36.562.011h-4.649L31.365 0v.045l-.005 6.479v45.685c0 3.633.815 6.292 2.264 7.984s3.902 2.532 7.358 2.532c2.39 0 5.109-.252 8.157-.758.153-.51.229-1.602.229-3.278s-.305-3.356-.915-5.039z" fill="#f6f6f6" stroke="none"/><path d="M23.107.001v.009L20.954.003c-2.565-.022-4.712 1.382-6.579 2.847-2.038 1.604-3.782 3.699-4.328 6.504-.312 1.645-.246 3.083-.246 4.519v11.32c0 3.997-1.484 6.968-3.496 8.911C5.172 35.231 2.752 36.259 0 37.188v5.114c2.439.674 4.787 1.587 6.089 2.745 2.156 1.888 3.71 4.605 3.71 8.155v13.22c0 4.392 1.045 7.738 4.086 10.032S20.471 79.889 24.518 80l2.709-.018V73.39c-2.113-.62-3.286-1.339-4.132-2.153-1.523-1.382-2.385-3.628-2.385-6.747V53.816c-.058-3.631-.642-6.471-1.961-8.526s-3.893-3.849-7.723-5.398c4.227-1.941 7.063-4.471 8.509-7.593.852-1.857 1.175-4.36 1.175-7.509v-9.788c0-3.233.749-5.498 2.045-6.792.704-.702 1.955-1.28 3.694-1.748l2.749.019V0h-6.089v.001h0z" fill="#f6f6f6" stroke="#404040" stroke-width="2"/></symbol></svg>